<?xml version="1.0" encoding="utf-8"?>
<!-- Generator: Adobe Illustrator 15.0.0, SVG Export Plug-In  -->
<!DOCTYPE svg PUBLIC "-//W3C//DTD SVG 1.1//EN" "http://www.w3.org/Graphics/SVG/1.1/DTD/svg11.dtd" [
	<!ENTITY ns_flows "http://ns.adobe.com/Flows/1.0/">
]>
<svg version="1.1"
	 xmlns="http://www.w3.org/2000/svg" xmlns:xlink="http://www.w3.org/1999/xlink" xmlns:a="http://ns.adobe.com/AdobeSVGViewerExtensions/3.0/"
	 x="0px" y="0px" width="41px" height="26px" viewBox="-0.646 -0.361 41 26" enable-background="new -0.646 -0.361 41 26"
	 xml:space="preserve">
<defs>
</defs>
<path d="M37.433,14.629H2c-1.104,0-2-0.895-2-2c0-1.104,0.896-2,2-2h35.433c1.105,0,2,0.896,2,2
	C39.433,13.735,38.538,14.629,37.433,14.629z"/>
<path d="M26.804,25.26c-0.512,0-1.023-0.195-1.414-0.586c-0.781-0.781-0.781-2.047,0-2.828l9.215-9.216L25.39,3.414
	c-0.781-0.781-0.781-2.047,0-2.828c0.779-0.781,2.047-0.781,2.828,0L40.261,12.63L28.218,24.674
	C27.827,25.065,27.315,25.26,26.804,25.26z"/>
</svg>
